<?xml version="1.0" encoding="utf-8"?>
<!-- Generator: Adobe Illustrator 15.1.0, SVG Export Plug-In . SVG Version: 6.00 Build 0)  -->
<!DOCTYPE svg PUBLIC "-//W3C//DTD SVG 1.1//EN" "http://www.w3.org/Graphics/SVG/1.1/DTD/svg11.dtd">
<svg version="1.1" id="Layer_1" xmlns="http://www.w3.org/2000/svg" xmlns:xlink="http://www.w3.org/1999/xlink" x="0px" y="0px"
	 width="200px" height="200px" viewBox="0 0 200 200" enable-background="new 0 0 200 200" xml:space="preserve">
<g>
	<rect x="3.165" y="56.608" fill="#020202" width="195.266" height="125.171"/>
	<line fill="none" stroke="#BDC3C7" stroke-width="4" stroke-miterlimit="10" x1="3.165" y1="84.534" x2="198.431" y2="84.534"/>
	<line fill="none" stroke="#BDC3C7" stroke-width="4" stroke-miterlimit="10" x1="3.165" y1="114.354" x2="198.431" y2="114.354"/>
	<line fill="none" stroke="#BDC3C7" stroke-width="4" stroke-miterlimit="10" x1="43.553" y1="84.534" x2="43.553" y2="114.354"/>
	<line fill="none" stroke="#BDC3C7" stroke-width="4" stroke-miterlimit="10" x1="110.645" y1="84.534" x2="110.645" y2="114.354"/>
	<line fill="none" stroke="#BDC3C7" stroke-width="4" stroke-miterlimit="10" x1="3.165" y1="173.1" x2="198.431" y2="173.1"/>
	<g>
		<path fill="#BDC3C7" d="M29.558,140.768c0.986,0.986,1.479,2.18,1.479,3.578c0,1.396-0.494,2.59-1.479,3.576
			c-0.824,0.822-1.831,1.316-3.023,1.479h-5.056v-15.125h4.651c0.922,0,1.705,0.322,2.347,0.969c0.642,0.646,0.963,1.422,0.963,2.33
			s-0.323,1.686-0.969,2.332C28.728,139.998,29.089,140.285,29.558,140.768z M22.979,135.754v3.535h3.321
			c0.497-0.051,0.866-0.195,1.107-0.438c0.348-0.348,0.521-0.773,0.521-1.277c0-0.496-0.177-0.924-0.532-1.281
			c-0.355-0.359-0.781-0.539-1.277-0.539H22.979z M25.981,147.9c0.972,0,1.804-0.346,2.496-1.039
			c0.692-0.691,1.038-1.529,1.038-2.516c0-0.98-0.346-1.818-1.038-2.514s-1.524-1.043-2.496-1.043h-3.002v7.111H25.981z"/>
		<path fill="#BDC3C7" d="M37.658,139.055c1.469,0,2.718,0.516,3.747,1.549s1.543,2.283,1.543,3.752
			c0,1.461-0.515,2.711-1.543,3.746c-1.029,1.037-2.278,1.555-3.747,1.555c-1.462,0-2.711-0.518-3.747-1.555
			c-1.036-1.035-1.554-2.285-1.554-3.746c0-1.469,0.518-2.719,1.554-3.752S36.196,139.055,37.658,139.055z M35.002,141.695
			c-0.734,0.736-1.102,1.625-1.102,2.66c0,1.037,0.365,1.92,1.096,2.65s1.618,1.096,2.661,1.096c1.036,0,1.921-0.365,2.656-1.096
			s1.102-1.613,1.102-2.65c0-1.035-0.367-1.924-1.102-2.66c-0.734-0.738-1.62-1.107-2.656-1.107S35.737,140.957,35.002,141.695z"/>
		<path fill="#BDC3C7" d="M46.387,134.275V149.4h-1.501v-15.125H46.387z"/>
		<path fill="#BDC3C7" d="M49.708,139.854v-3.779h1.49v3.779h1.809v1.5h-1.809v8.047h-1.49v-8.047h-1.81v-1.5H49.708z"/>
		<path fill="#BDC3C7" d="M61.257,142.588v6.813h-1.501v-15.125h1.501v6.813h6.717v-6.813h1.5V149.4h-1.5v-6.813H61.257z"/>
		<path fill="#BDC3C7" d="M75.968,135.766V149.4h-1.49v-13.635h-3.662v-1.49h8.803v1.49H75.968z"/>
		<path fill="#BDC3C7" d="M94.467,134.275V149.4h-1.501v-12.9l-4.471,5.844l-0.777,1.033l-0.788-1.023L82.46,136.5v12.9h-1.501
			v-15.125h1.692l5.067,6.621l5.056-6.621H94.467z"/>
		<path fill="#BDC3C7" d="M96.649,149.4v-15.125h1.5V147.9h5.503v1.5H96.649z"/>
		<path fill="#BDC3C7" d="M107.603,138.564l0.383-0.063c0.405-0.078,0.799-0.117,1.182-0.117c0.71,0,1.384,0.113,2.022,0.34
			c1.44,0.49,2.516,1.398,3.226,2.725c0.439,0.83,0.66,1.678,0.66,2.545c0,0.547-0.082,1.088-0.245,1.629
			c-0.447,1.439-1.334,2.518-2.661,3.234c-0.816,0.434-1.653,0.65-2.512,0.65c-0.547,0-1.101-0.09-1.661-0.266
			c-1.156-0.355-2.118-1.059-2.885-2.109l1.064-1.16c0.625,0.93,1.384,1.529,2.278,1.799c0.404,0.129,0.795,0.193,1.171,0.193
			c0.617,0,1.225-0.156,1.82-0.469c0.958-0.512,1.597-1.289,1.916-2.332c0.128-0.396,0.191-0.791,0.191-1.182
			c0-0.617-0.159-1.221-0.479-1.809c-0.512-0.959-1.292-1.621-2.342-1.99c-0.455-0.156-0.951-0.234-1.49-0.234
			c-0.738,0-1.618,0.158-2.641,0.479l-0.958-0.842l1.714-4.736v-0.574h5.194v1.49h-3.928L107.603,138.564z"/>
		<path fill="#BDC3C7" d="M126.911,149.4l-5.514-15.115h1.586l4.651,12.764l4.727-12.773h1.586L128.38,149.4H126.911z"/>
		<path fill="#BDC3C7" d="M136.769,137.049c0.227,0.223,0.34,0.49,0.34,0.803c0,0.326-0.113,0.602-0.34,0.824
			c-0.228,0.225-0.497,0.336-0.81,0.336c-0.319,0-0.593-0.111-0.819-0.336c-0.228-0.223-0.341-0.498-0.341-0.824
			c0-0.313,0.113-0.58,0.341-0.803c0.227-0.225,0.5-0.336,0.819-0.336C136.271,136.713,136.541,136.824,136.769,137.049z
			 M136.693,139.854v9.547h-1.49v-9.547H136.693z"/>
		<path fill="#BDC3C7" d="M149.222,149.4h-1.501v-1.117c-0.986,0.916-2.214,1.373-3.683,1.373c-1.462,0-2.711-0.518-3.747-1.555
			c-1.036-1.035-1.554-2.285-1.554-3.746c0-1.469,0.518-2.719,1.554-3.752s2.285-1.549,3.747-1.549c1.469,0,2.696,0.453,3.683,1.363
			v-6.143h1.501V149.4z M147.721,145.121v-1.531c-0.135-0.711-0.476-1.342-1.021-1.895c-0.738-0.738-1.625-1.107-2.661-1.107
			s-1.922,0.369-2.656,1.107c-0.734,0.736-1.102,1.625-1.102,2.66c0,1.037,0.365,1.92,1.097,2.65c0.73,0.73,1.618,1.096,2.661,1.096
			c1.036,0,1.923-0.369,2.661-1.105C147.245,146.449,147.586,145.824,147.721,145.121z"/>
		<path fill="#BDC3C7" d="M152.244,144.238c0.015,1.113,0.387,2.037,1.118,2.768c0.73,0.73,1.618,1.096,2.661,1.096
			c1.036,0,1.923-0.369,2.661-1.105c0.128-0.129,0.298-0.324,0.511-0.586l1.49,0.521c-0.263,0.439-0.567,0.826-0.915,1.16
			c-1.029,1.043-2.278,1.564-3.747,1.564c-1.462,0-2.711-0.518-3.747-1.555c-1.036-1.035-1.554-2.285-1.554-3.746
			c0-1.469,0.518-2.719,1.554-3.752s2.285-1.549,3.747-1.549c1.469,0,2.722,0.518,3.758,1.555c0.915,0.922,1.373,2.131,1.373,3.629
			H152.244z M152.574,142.727h6.855c-0.085-0.27-0.334-0.613-0.745-1.031c-0.738-0.738-1.625-1.107-2.661-1.107
			c-1.043,0-1.931,0.369-2.661,1.107C152.922,142.141,152.66,142.486,152.574,142.727z"/>
		<path fill="#BDC3C7" d="M167.604,139.055c1.469,0,2.718,0.516,3.747,1.549c1.028,1.033,1.543,2.283,1.543,3.752
			c0,1.461-0.515,2.711-1.543,3.746c-1.029,1.037-2.278,1.555-3.747,1.555c-1.462,0-2.711-0.518-3.747-1.555
			c-1.036-1.035-1.554-2.285-1.554-3.746c0-1.469,0.518-2.719,1.554-3.752S166.143,139.055,167.604,139.055z M164.948,141.695
			c-0.734,0.736-1.102,1.625-1.102,2.66c0,1.037,0.365,1.92,1.097,2.65c0.73,0.73,1.618,1.096,2.661,1.096
			c1.036,0,1.921-0.365,2.655-1.096c0.735-0.73,1.103-1.613,1.103-2.65c0-1.035-0.367-1.924-1.103-2.66
			c-0.734-0.738-1.619-1.107-2.655-1.107S165.683,140.957,164.948,141.695z"/>
		<path fill="#BDC3C7" d="M177.163,144.59c-0.71-0.383-1.21-0.721-1.501-1.012c-0.482-0.482-0.724-1.064-0.724-1.746
			c0-0.674,0.241-1.254,0.724-1.74s1.064-0.729,1.746-0.729c0.681,0,1.249,0.227,1.703,0.682c0.439,0.439,0.66,0.947,0.66,1.521
			v0.277l-1.32,0.531c-0.093-0.674-0.222-1.096-0.389-1.266s-0.385-0.256-0.654-0.256s-0.501,0.098-0.692,0.293
			s-0.287,0.424-0.287,0.686c0,0.27,0.096,0.5,0.287,0.693c0.135,0.141,0.43,0.354,0.884,0.639c0.795,0.432,1.366,0.822,1.714,1.17
			c0.574,0.582,0.862,1.277,0.862,2.086c0,0.83-0.288,1.537-0.862,2.119c-0.575,0.582-1.274,0.873-2.097,0.873
			c-0.823,0-1.524-0.291-2.103-0.873c-0.579-0.582-0.868-1.313-0.868-2.193l1.49-0.383c0,0.725,0.146,1.23,0.437,1.521
			s0.639,0.438,1.044,0.438c0.404,0,0.754-0.146,1.048-0.438c0.295-0.291,0.442-0.645,0.442-1.064c0-0.396-0.149-0.74-0.447-1.031
			C178.089,145.217,177.724,144.951,177.163,144.59z"/>
	</g>
	<g>
		<path fill="#BDC3C7" d="M8.629,79.305v-5.202h0.564v2.136h2.217v-2.136h0.564v5.202h-0.564v-2.452H9.193v2.452H8.629z"/>
		<path fill="#BDC3C7" d="M12.66,77.421c0-0.65,0.137-1.141,0.41-1.472c0.273-0.331,0.619-0.497,1.038-0.497
			c0.412,0,0.756,0.166,1.032,0.497c0.277,0.331,0.416,0.809,0.416,1.434c0,0.676-0.136,1.18-0.408,1.511s-0.619,0.497-1.04,0.497
			c-0.414,0-0.759-0.166-1.034-0.499C12.797,78.56,12.66,78.069,12.66,77.421z M13.195,77.419c0,0.488,0.089,0.851,0.266,1.089
			c0.178,0.238,0.397,0.357,0.66,0.357c0.246,0,0.457-0.12,0.633-0.361c0.176-0.24,0.264-0.602,0.264-1.085
			c0-0.485-0.088-0.847-0.266-1.085c-0.177-0.238-0.397-0.357-0.66-0.357c-0.249,0-0.46,0.12-0.635,0.359
			C13.283,76.575,13.195,76.936,13.195,77.419z"/>
		<path fill="#BDC3C7" d="M18.195,79.305v-0.554c-0.121,0.213-0.263,0.373-0.426,0.479s-0.348,0.16-0.554,0.16
			c-0.244,0-0.452-0.065-0.624-0.197c-0.173-0.131-0.288-0.297-0.346-0.499s-0.087-0.476-0.087-0.823v-2.334h0.521v2.09
			c0,0.388,0.02,0.647,0.059,0.779s0.111,0.236,0.216,0.316c0.105,0.079,0.226,0.119,0.36,0.119c0.25,0,0.457-0.103,0.617-0.309
			c0.137-0.177,0.206-0.502,0.206-0.976v-2.019h0.525v3.768H18.195z"/>
		<path fill="#BDC3C7" d="M19.486,79.305v-3.768h0.472v0.571c0.121-0.265,0.231-0.44,0.332-0.527s0.213-0.129,0.339-0.129
			c0.175,0,0.354,0.068,0.536,0.206l-0.177,0.592c-0.13-0.092-0.257-0.138-0.38-0.138c-0.111,0-0.213,0.039-0.305,0.117
			s-0.157,0.187-0.195,0.326c-0.066,0.244-0.1,0.503-0.1,0.777v1.973H19.486z"/>
	</g>
	<g>
		<path fill="#BDC3C7" d="M46.333,79.306v-5.202h0.849l1.012,3.683l0.203,0.77c0.05-0.192,0.125-0.47,0.227-0.834l1.023-3.619h0.759
			v5.202h-0.542v-4.35l-1.244,4.35h-0.507l-1.237-4.425v4.425H46.333z"/>
		<path fill="#BDC3C7" d="M51.241,74.838v-0.734h0.521v0.734H51.241z M51.241,79.306v-3.768h0.521v3.768H51.241z"/>
		<path fill="#BDC3C7" d="M52.564,79.306v-3.768h0.472v0.532c0.113-0.207,0.252-0.362,0.416-0.464
			c0.164-0.103,0.353-0.153,0.565-0.153c0.165,0,0.318,0.032,0.458,0.097c0.141,0.065,0.254,0.15,0.34,0.256
			c0.086,0.105,0.15,0.242,0.193,0.41s0.064,0.426,0.064,0.773v2.317h-0.522v-2.294c0-0.277-0.023-0.479-0.071-0.607
			s-0.121-0.227-0.222-0.297s-0.217-0.104-0.35-0.104c-0.25,0-0.451,0.093-0.6,0.281c-0.149,0.187-0.224,0.508-0.224,0.962v2.06
			H52.564z"/>
		<path fill="#BDC3C7" d="M57.9,79.306v-0.554c-0.121,0.213-0.263,0.373-0.426,0.479s-0.348,0.16-0.554,0.16
			c-0.244,0-0.452-0.065-0.624-0.197c-0.173-0.131-0.288-0.297-0.346-0.499s-0.087-0.476-0.087-0.823v-2.334h0.521v2.09
			c0,0.388,0.02,0.647,0.059,0.779s0.111,0.236,0.216,0.316c0.105,0.079,0.226,0.119,0.36,0.119c0.25,0,0.457-0.103,0.617-0.309
			c0.137-0.177,0.206-0.502,0.206-0.976v-2.019h0.525v3.768H57.9z"/>
		<path fill="#BDC3C7" d="M60.355,78.734l0.071,0.564c-0.145,0.038-0.274,0.057-0.391,0.057c-0.182,0-0.329-0.036-0.44-0.108
			c-0.111-0.072-0.188-0.171-0.229-0.296c-0.042-0.125-0.062-0.375-0.062-0.749v-2.168h-0.383v-0.497h0.383v-0.933l0.521-0.383
			v1.316h0.528v0.497h-0.528v2.204c0,0.203,0.015,0.334,0.046,0.394c0.045,0.085,0.129,0.128,0.252,0.128
			C60.184,78.759,60.261,78.751,60.355,78.734z"/>
		<path fill="#BDC3C7" d="M62.96,78.092l0.539,0.082c-0.09,0.402-0.252,0.706-0.488,0.91s-0.527,0.307-0.875,0.307
			c-0.438,0-0.792-0.166-1.063-0.499c-0.271-0.332-0.406-0.812-0.406-1.438c0-0.65,0.137-1.146,0.41-1.488
			c0.273-0.342,0.619-0.513,1.038-0.513c0.4,0,0.733,0.168,1,0.503c0.268,0.336,0.401,0.822,0.401,1.458l-0.004,0.17h-2.306
			c0.021,0.423,0.12,0.743,0.294,0.958c0.175,0.215,0.388,0.323,0.639,0.323C62.533,78.866,62.807,78.608,62.96,78.092z
			 M61.239,77.06h1.725c-0.024-0.326-0.093-0.57-0.209-0.731c-0.168-0.234-0.382-0.351-0.642-0.351c-0.234,0-0.434,0.098-0.6,0.292
			C61.347,76.465,61.256,76.729,61.239,77.06z"/>
		<path fill="#BDC3C7" d="M63.961,78.177l0.521-0.099c0.031,0.266,0.114,0.464,0.251,0.593c0.137,0.129,0.318,0.194,0.545,0.194
			s0.402-0.056,0.526-0.168c0.124-0.112,0.186-0.255,0.186-0.428c0-0.149-0.053-0.265-0.16-0.348
			c-0.073-0.057-0.25-0.128-0.532-0.213c-0.407-0.125-0.679-0.232-0.816-0.319s-0.244-0.205-0.319-0.351
			c-0.076-0.147-0.113-0.313-0.113-0.5c0-0.322,0.103-0.583,0.309-0.784c0.206-0.201,0.491-0.301,0.855-0.301
			c0.229,0,0.431,0.041,0.605,0.124c0.174,0.083,0.307,0.194,0.399,0.333s0.156,0.339,0.192,0.6l-0.511,0.085
			c-0.047-0.412-0.271-0.617-0.67-0.617c-0.227,0-0.396,0.045-0.507,0.136c-0.111,0.09-0.167,0.207-0.167,0.348
			c0,0.139,0.053,0.249,0.16,0.329c0.064,0.047,0.253,0.123,0.569,0.227c0.433,0.137,0.714,0.247,0.841,0.329
			c0.127,0.082,0.227,0.193,0.297,0.334c0.071,0.141,0.106,0.309,0.106,0.502c0,0.36-0.114,0.652-0.343,0.875
			c-0.228,0.223-0.54,0.334-0.935,0.334C64.508,79.391,64.079,78.986,63.961,78.177z"/>
	</g>
	<g>
		<path fill="#BDC3C7" d="M121.595,77.631l0.532-0.057c0.028,0.286,0.093,0.509,0.193,0.669s0.244,0.288,0.432,0.385
			c0.187,0.097,0.397,0.146,0.631,0.146c0.336,0,0.597-0.082,0.782-0.246c0.187-0.164,0.279-0.377,0.279-0.639
			c0-0.153-0.034-0.287-0.102-0.402c-0.067-0.114-0.169-0.208-0.305-0.281c-0.137-0.073-0.431-0.177-0.882-0.311
			c-0.402-0.119-0.688-0.239-0.858-0.36c-0.171-0.121-0.304-0.274-0.397-0.459c-0.095-0.186-0.143-0.396-0.143-0.63
			c0-0.421,0.137-0.765,0.408-1.033c0.272-0.267,0.639-0.401,1.1-0.401c0.317,0,0.595,0.063,0.832,0.188
			c0.238,0.125,0.423,0.305,0.554,0.54c0.132,0.234,0.202,0.51,0.211,0.827l-0.543,0.05c-0.028-0.338-0.129-0.589-0.303-0.752
			c-0.174-0.163-0.418-0.245-0.732-0.245c-0.319,0-0.563,0.071-0.731,0.214c-0.168,0.144-0.252,0.329-0.252,0.555
			c0,0.211,0.062,0.374,0.185,0.49c0.123,0.116,0.399,0.233,0.83,0.352c0.421,0.117,0.717,0.218,0.887,0.303
			c0.26,0.133,0.456,0.308,0.589,0.524c0.133,0.216,0.199,0.474,0.199,0.774c0,0.297-0.069,0.569-0.209,0.813
			c-0.14,0.245-0.33,0.431-0.569,0.559c-0.24,0.127-0.529,0.191-0.868,0.191c-0.527,0-0.947-0.159-1.261-0.476
			S121.606,78.173,121.595,77.631z"/>
		<path fill="#BDC3C7" d="M127.797,78.092l0.539,0.082c-0.09,0.402-0.252,0.706-0.487,0.91c-0.236,0.205-0.527,0.307-0.875,0.307
			c-0.438,0-0.792-0.166-1.063-0.499c-0.271-0.332-0.406-0.812-0.406-1.438c0-0.65,0.137-1.146,0.409-1.488
			c0.273-0.342,0.619-0.513,1.038-0.513c0.399,0,0.733,0.168,1.001,0.503c0.267,0.336,0.4,0.822,0.4,1.458l-0.003,0.17h-2.307
			c0.021,0.423,0.119,0.743,0.295,0.958c0.175,0.215,0.388,0.323,0.639,0.323C127.37,78.866,127.643,78.608,127.797,78.092z
			 M126.076,77.06h1.724c-0.023-0.326-0.093-0.57-0.209-0.731c-0.168-0.234-0.382-0.351-0.643-0.351c-0.233,0-0.434,0.098-0.6,0.292
			C126.184,76.465,126.093,76.729,126.076,77.06z"/>
		<path fill="#BDC3C7" d="M131.022,77.925l0.515,0.082c-0.06,0.45-0.208,0.792-0.445,1.029c-0.238,0.236-0.523,0.354-0.857,0.354
			c-0.404,0-0.737-0.166-0.998-0.499c-0.262-0.332-0.393-0.824-0.393-1.474c0-0.655,0.132-1.146,0.396-1.474
			s0.603-0.491,1.017-0.491c0.319,0,0.589,0.099,0.808,0.298s0.358,0.497,0.42,0.894l-0.507,0.092
			c-0.05-0.254-0.137-0.444-0.259-0.57c-0.123-0.126-0.271-0.189-0.444-0.189c-0.258,0-0.471,0.114-0.64,0.342
			c-0.17,0.229-0.254,0.591-0.254,1.087c0,0.514,0.081,0.885,0.243,1.114s0.369,0.344,0.622,0.344c0.199,0,0.369-0.076,0.51-0.229
			C130.896,78.484,130.984,78.247,131.022,77.925z"/>
		<path fill="#BDC3C7" d="M131.782,77.421c0-0.65,0.136-1.141,0.409-1.472s0.619-0.497,1.038-0.497c0.411,0,0.756,0.166,1.032,0.497
			c0.277,0.331,0.415,0.809,0.415,1.434c0,0.676-0.136,1.18-0.408,1.511c-0.271,0.331-0.618,0.497-1.039,0.497
			c-0.414,0-0.759-0.166-1.034-0.499C131.92,78.56,131.782,78.07,131.782,77.421z M132.317,77.42c0,0.488,0.089,0.851,0.267,1.089
			c0.177,0.238,0.397,0.357,0.659,0.357c0.246,0,0.458-0.12,0.634-0.361c0.176-0.24,0.265-0.602,0.265-1.085
			c0-0.485-0.089-0.847-0.267-1.085c-0.177-0.238-0.397-0.357-0.66-0.357c-0.248,0-0.46,0.12-0.635,0.359
			S132.317,76.937,132.317,77.42z"/>
		<path fill="#BDC3C7" d="M135.294,79.306v-3.768h0.472v0.532c0.113-0.207,0.252-0.362,0.416-0.464
			c0.164-0.103,0.353-0.153,0.565-0.153c0.165,0,0.318,0.032,0.459,0.097c0.14,0.065,0.254,0.15,0.34,0.256
			c0.086,0.105,0.15,0.242,0.192,0.41c0.043,0.168,0.064,0.426,0.064,0.773v2.317h-0.521v-2.294c0-0.277-0.024-0.479-0.071-0.607
			s-0.121-0.227-0.222-0.297s-0.217-0.104-0.35-0.104c-0.251,0-0.45,0.093-0.6,0.281c-0.149,0.187-0.224,0.508-0.224,0.962v2.06
			H135.294z"/>
		<path fill="#BDC3C7" d="M140.609,79.306V78.83c-0.095,0.182-0.216,0.321-0.365,0.417s-0.31,0.144-0.482,0.144
			c-0.364,0-0.68-0.172-0.945-0.516c-0.267-0.344-0.399-0.829-0.399-1.453c0-0.428,0.059-0.791,0.177-1.089
			c0.118-0.298,0.275-0.52,0.473-0.664c0.197-0.145,0.417-0.216,0.657-0.216c0.173,0,0.333,0.045,0.48,0.136
			c0.147,0.091,0.27,0.218,0.366,0.381v-1.866h0.529v5.202H140.609z M138.952,77.425c0,0.487,0.085,0.849,0.254,1.085
			c0.17,0.237,0.366,0.355,0.592,0.355c0.223,0,0.415-0.114,0.578-0.341c0.164-0.227,0.245-0.57,0.245-1.029
			c0-0.527-0.081-0.913-0.245-1.155c-0.163-0.243-0.369-0.364-0.617-0.364c-0.221,0-0.41,0.117-0.568,0.35
			S138.952,76.926,138.952,77.425z"/>
		<path fill="#BDC3C7" d="M141.72,78.177l0.521-0.099c0.03,0.266,0.114,0.464,0.251,0.593c0.138,0.129,0.319,0.194,0.546,0.194
			s0.401-0.056,0.525-0.168s0.186-0.255,0.186-0.428c0-0.149-0.053-0.265-0.159-0.348c-0.073-0.057-0.251-0.128-0.532-0.213
			c-0.407-0.125-0.68-0.232-0.816-0.319s-0.243-0.205-0.319-0.351c-0.076-0.147-0.113-0.313-0.113-0.5
			c0-0.322,0.103-0.583,0.309-0.784s0.49-0.301,0.854-0.301c0.229,0,0.432,0.041,0.605,0.124c0.174,0.083,0.307,0.194,0.399,0.333
			c0.092,0.14,0.156,0.339,0.191,0.6l-0.511,0.085c-0.048-0.412-0.271-0.617-0.671-0.617c-0.228,0-0.396,0.045-0.508,0.136
			c-0.11,0.09-0.166,0.207-0.166,0.348c0,0.139,0.053,0.249,0.159,0.329c0.064,0.047,0.254,0.123,0.569,0.227
			c0.434,0.137,0.714,0.247,0.841,0.329c0.127,0.082,0.227,0.193,0.297,0.334c0.071,0.141,0.106,0.309,0.106,0.502
			c0,0.36-0.114,0.652-0.343,0.875s-0.54,0.334-0.935,0.334C142.268,79.391,141.838,78.986,141.72,78.177z"/>
	</g>
	<g>
		<path fill="#BDC3C7" d="M16.123,104.768c-0.705,0-1.241-0.27-1.609-0.811s-0.552-1.328-0.552-2.359v-1.36
			c0-1.044,0.184-1.84,0.552-2.388c0.368-0.547,0.907-0.821,1.618-0.821c0.699,0,1.232,0.274,1.6,0.821
			c0.368,0.548,0.552,1.344,0.552,2.388v1.36c0,1.031-0.184,1.818-0.552,2.359C17.364,104.498,16.828,104.768,16.123,104.768z
			 M16.123,103.965c0.465,0,0.797-0.178,0.996-0.537s0.297-0.963,0.297-1.813v-1.396c0-0.862-0.099-1.476-0.297-1.841
			c-0.198-0.364-0.53-0.547-0.996-0.547c-0.466,0-0.797,0.183-0.996,0.547c-0.198,0.365-0.297,0.979-0.297,1.841v1.396
			c0,0.85,0.099,1.453,0.297,1.813S15.657,103.965,16.123,103.965z M16.123,101.625c-0.17,0-0.307-0.035-0.411-0.104
			c-0.104-0.068-0.156-0.201-0.156-0.396v-0.444c0-0.188,0.052-0.319,0.156-0.392c0.104-0.072,0.241-0.108,0.411-0.108
			s0.307,0.036,0.411,0.108c0.104,0.072,0.156,0.203,0.156,0.392v0.444c0,0.195-0.054,0.328-0.161,0.396
			S16.287,101.625,16.123,101.625z"/>
		<path fill="#BDC3C7" d="M22.012,104.768c-0.705,0-1.241-0.27-1.609-0.811s-0.552-1.328-0.552-2.359v-1.36
			c0-1.044,0.184-1.84,0.552-2.388c0.368-0.547,0.907-0.821,1.618-0.821c0.699,0,1.232,0.274,1.6,0.821
			c0.368,0.548,0.552,1.344,0.552,2.388v1.36c0,1.031-0.184,1.818-0.552,2.359C23.253,104.498,22.716,104.768,22.012,104.768z
			 M22.012,103.965c0.465,0,0.797-0.178,0.996-0.537s0.297-0.963,0.297-1.813v-1.396c0-0.862-0.099-1.476-0.297-1.841
			c-0.198-0.364-0.53-0.547-0.996-0.547c-0.466,0-0.797,0.183-0.996,0.547c-0.198,0.365-0.297,0.979-0.297,1.841v1.396
			c0,0.85,0.099,1.453,0.297,1.813S21.546,103.965,22.012,103.965z M22.012,101.625c-0.17,0-0.307-0.035-0.411-0.104
			c-0.104-0.068-0.156-0.201-0.156-0.396v-0.444c0-0.188,0.052-0.319,0.156-0.392c0.104-0.072,0.241-0.108,0.411-0.108
			s0.307,0.036,0.411,0.108c0.104,0.072,0.156,0.203,0.156,0.392v0.444c0,0.195-0.054,0.328-0.161,0.396
			S22.175,101.625,22.012,101.625z"/>
	</g>
	<g>
		<path fill="#BDC3C7" d="M16.123,104.768c-0.705,0-1.241-0.27-1.609-0.811s-0.552-1.328-0.552-2.359v-1.36
			c0-1.044,0.184-1.84,0.552-2.388c0.368-0.547,0.907-0.821,1.618-0.821c0.699,0,1.232,0.274,1.6,0.821
			c0.368,0.548,0.552,1.344,0.552,2.388v1.36c0,1.031-0.184,1.818-0.552,2.359C17.364,104.498,16.828,104.768,16.123,104.768z
			 M16.123,103.965c0.465,0,0.797-0.178,0.996-0.537s0.297-0.963,0.297-1.813v-1.396c0-0.862-0.099-1.476-0.297-1.841
			c-0.198-0.364-0.53-0.547-0.996-0.547c-0.466,0-0.797,0.183-0.996,0.547c-0.198,0.365-0.297,0.979-0.297,1.841v1.396
			c0,0.85,0.099,1.453,0.297,1.813S15.657,103.965,16.123,103.965z M16.123,101.625c-0.17,0-0.307-0.035-0.411-0.104
			c-0.104-0.068-0.156-0.201-0.156-0.396v-0.444c0-0.188,0.052-0.319,0.156-0.392c0.104-0.072,0.241-0.108,0.411-0.108
			s0.307,0.036,0.411,0.108c0.104,0.072,0.156,0.203,0.156,0.392v0.444c0,0.195-0.054,0.328-0.161,0.396
			S16.287,101.625,16.123,101.625z"/>
		<path fill="#BDC3C7" d="M22.012,104.768c-0.705,0-1.241-0.27-1.609-0.811s-0.552-1.328-0.552-2.359v-1.36
			c0-1.044,0.184-1.84,0.552-2.388c0.368-0.547,0.907-0.821,1.618-0.821c0.699,0,1.232,0.274,1.6,0.821
			c0.368,0.548,0.552,1.344,0.552,2.388v1.36c0,1.031-0.184,1.818-0.552,2.359C23.253,104.498,22.716,104.768,22.012,104.768z
			 M22.012,103.965c0.465,0,0.797-0.178,0.996-0.537s0.297-0.963,0.297-1.813v-1.396c0-0.862-0.099-1.476-0.297-1.841
			c-0.198-0.364-0.53-0.547-0.996-0.547c-0.466,0-0.797,0.183-0.996,0.547c-0.198,0.365-0.297,0.979-0.297,1.841v1.396
			c0,0.85,0.099,1.453,0.297,1.813S21.546,103.965,22.012,103.965z M22.012,101.625c-0.17,0-0.307-0.035-0.411-0.104
			c-0.104-0.068-0.156-0.201-0.156-0.396v-0.444c0-0.188,0.052-0.319,0.156-0.392c0.104-0.072,0.241-0.108,0.411-0.108
			s0.307,0.036,0.411,0.108c0.104,0.072,0.156,0.203,0.156,0.392v0.444c0,0.195-0.054,0.328-0.161,0.396
			S22.175,101.625,22.012,101.625z"/>
	</g>
	<g>
		<path fill="#BDC3C7" d="M69.863,104.768c-0.705,0-1.241-0.27-1.609-0.811s-0.552-1.328-0.552-2.359v-1.36
			c0-1.044,0.184-1.84,0.552-2.388c0.368-0.547,0.907-0.821,1.618-0.821c0.699,0,1.232,0.274,1.6,0.821
			c0.368,0.548,0.552,1.344,0.552,2.388v1.36c0,1.031-0.184,1.818-0.552,2.359C71.104,104.498,70.567,104.768,69.863,104.768z
			 M69.863,103.965c0.465,0,0.797-0.178,0.996-0.537s0.297-0.963,0.297-1.813v-1.396c0-0.862-0.099-1.476-0.297-1.841
			c-0.198-0.364-0.53-0.547-0.996-0.547c-0.466,0-0.797,0.183-0.996,0.547c-0.198,0.365-0.297,0.979-0.297,1.841v1.396
			c0,0.85,0.099,1.453,0.297,1.813S69.397,103.965,69.863,103.965z M69.863,101.625c-0.17,0-0.307-0.035-0.411-0.104
			c-0.104-0.068-0.156-0.201-0.156-0.396v-0.444c0-0.188,0.052-0.319,0.156-0.392c0.104-0.072,0.241-0.108,0.411-0.108
			s0.307,0.036,0.411,0.108c0.104,0.072,0.156,0.203,0.156,0.392v0.444c0,0.195-0.054,0.328-0.161,0.396
			S70.026,101.625,69.863,101.625z"/>
		<path fill="#BDC3C7" d="M75.751,104.768c-0.705,0-1.241-0.27-1.609-0.811s-0.552-1.328-0.552-2.359v-1.36
			c0-1.044,0.184-1.84,0.552-2.388c0.368-0.547,0.907-0.821,1.618-0.821c0.699,0,1.232,0.274,1.6,0.821
			c0.368,0.548,0.552,1.344,0.552,2.388v1.36c0,1.031-0.184,1.818-0.552,2.359C76.993,104.498,76.456,104.768,75.751,104.768z
			 M75.751,103.965c0.465,0,0.797-0.178,0.996-0.537s0.297-0.963,0.297-1.813v-1.396c0-0.862-0.099-1.476-0.297-1.841
			c-0.198-0.364-0.53-0.547-0.996-0.547c-0.466,0-0.797,0.183-0.996,0.547c-0.198,0.365-0.297,0.979-0.297,1.841v1.396
			c0,0.85,0.099,1.453,0.297,1.813S75.286,103.965,75.751,103.965z M75.751,101.625c-0.17,0-0.307-0.035-0.411-0.104
			c-0.104-0.068-0.156-0.201-0.156-0.396v-0.444c0-0.188,0.052-0.319,0.156-0.392c0.104-0.072,0.241-0.108,0.411-0.108
			s0.307,0.036,0.411,0.108c0.104,0.072,0.156,0.203,0.156,0.392v0.444c0,0.195-0.054,0.328-0.161,0.396
			S75.915,101.625,75.751,101.625z"/>
	</g>
	<g>
		<path fill="#BDC3C7" d="M139.625,104.768c-0.705,0-1.241-0.27-1.609-0.811c-0.367-0.541-0.552-1.328-0.552-2.359v-1.36
			c0-1.044,0.185-1.84,0.552-2.388c0.368-0.547,0.908-0.821,1.619-0.821c0.698,0,1.231,0.274,1.6,0.821
			c0.368,0.548,0.552,1.344,0.552,2.388v1.36c0,1.031-0.184,1.818-0.552,2.359S140.329,104.768,139.625,104.768z M139.625,103.965
			c0.466,0,0.798-0.178,0.996-0.537c0.197-0.359,0.297-0.963,0.297-1.813v-1.396c0-0.862-0.1-1.476-0.297-1.841
			c-0.198-0.364-0.53-0.547-0.996-0.547s-0.798,0.183-0.995,0.547c-0.198,0.365-0.298,0.979-0.298,1.841v1.396
			c0,0.85,0.1,1.453,0.298,1.813C138.827,103.787,139.159,103.965,139.625,103.965z M139.625,101.625
			c-0.17,0-0.307-0.035-0.41-0.104c-0.104-0.068-0.156-0.201-0.156-0.396v-0.444c0-0.188,0.052-0.319,0.156-0.392
			c0.104-0.072,0.24-0.108,0.41-0.108s0.307,0.036,0.41,0.108c0.104,0.072,0.156,0.203,0.156,0.392v0.444
			c0,0.195-0.054,0.328-0.16,0.396C139.924,101.59,139.788,101.625,139.625,101.625z"/>
		<path fill="#BDC3C7" d="M145.514,104.768c-0.705,0-1.241-0.27-1.609-0.811c-0.367-0.541-0.552-1.328-0.552-2.359v-1.36
			c0-1.044,0.185-1.84,0.552-2.388c0.368-0.547,0.908-0.821,1.619-0.821c0.698,0,1.231,0.274,1.6,0.821
			c0.368,0.548,0.552,1.344,0.552,2.388v1.36c0,1.031-0.184,1.818-0.552,2.359S146.218,104.768,145.514,104.768z M145.514,103.965
			c0.466,0,0.798-0.178,0.996-0.537c0.197-0.359,0.297-0.963,0.297-1.813v-1.396c0-0.862-0.1-1.476-0.297-1.841
			c-0.198-0.364-0.53-0.547-0.996-0.547s-0.798,0.183-0.995,0.547c-0.198,0.365-0.298,0.979-0.298,1.841v1.396
			c0,0.85,0.1,1.453,0.298,1.813C144.716,103.787,145.048,103.965,145.514,103.965z M145.514,101.625
			c-0.17,0-0.307-0.035-0.41-0.104c-0.104-0.068-0.156-0.201-0.156-0.396v-0.444c0-0.188,0.052-0.319,0.156-0.392
			c0.104-0.072,0.24-0.108,0.41-0.108s0.307,0.036,0.41,0.108c0.104,0.072,0.156,0.203,0.156,0.392v0.444
			c0,0.195-0.054,0.328-0.16,0.396C145.813,101.59,145.677,101.625,145.514,101.625z"/>
	</g>
	<g>
		<path fill="#BDC3C7" d="M154.311,104.768c-0.705,0-1.241-0.27-1.609-0.811c-0.367-0.541-0.552-1.328-0.552-2.359v-1.36
			c0-1.044,0.185-1.84,0.552-2.388c0.368-0.547,0.908-0.821,1.619-0.821c0.698,0,1.231,0.274,1.6,0.821
			c0.368,0.548,0.552,1.344,0.552,2.388v1.36c0,1.031-0.184,1.818-0.552,2.359S155.015,104.768,154.311,104.768z M154.311,103.965
			c0.466,0,0.798-0.178,0.996-0.537c0.197-0.359,0.297-0.963,0.297-1.813v-1.396c0-0.862-0.1-1.476-0.297-1.841
			c-0.198-0.364-0.53-0.547-0.996-0.547s-0.798,0.183-0.995,0.547c-0.198,0.365-0.298,0.979-0.298,1.841v1.396
			c0,0.85,0.1,1.453,0.298,1.813C153.513,103.787,153.845,103.965,154.311,103.965z M154.311,101.625
			c-0.17,0-0.307-0.035-0.41-0.104c-0.104-0.068-0.156-0.201-0.156-0.396v-0.444c0-0.188,0.052-0.319,0.156-0.392
			c0.104-0.072,0.24-0.108,0.41-0.108s0.307,0.036,0.41,0.108c0.104,0.072,0.156,0.203,0.156,0.392v0.444
			c0,0.195-0.054,0.328-0.16,0.396C154.609,101.59,154.474,101.625,154.311,101.625z"/>
		<path fill="#BDC3C7" d="M160.199,104.768c-0.705,0-1.241-0.27-1.609-0.811c-0.367-0.541-0.552-1.328-0.552-2.359v-1.36
			c0-1.044,0.185-1.84,0.552-2.388c0.368-0.547,0.908-0.821,1.619-0.821c0.698,0,1.231,0.274,1.6,0.821
			c0.368,0.548,0.552,1.344,0.552,2.388v1.36c0,1.031-0.184,1.818-0.552,2.359S160.903,104.768,160.199,104.768z M160.199,103.965
			c0.466,0,0.798-0.178,0.996-0.537c0.197-0.359,0.297-0.963,0.297-1.813v-1.396c0-0.862-0.1-1.476-0.297-1.841
			c-0.198-0.364-0.53-0.547-0.996-0.547s-0.798,0.183-0.995,0.547c-0.198,0.365-0.298,0.979-0.298,1.841v1.396
			c0,0.85,0.1,1.453,0.298,1.813C159.401,103.787,159.733,103.965,160.199,103.965z M160.199,101.625
			c-0.17,0-0.307-0.035-0.41-0.104c-0.104-0.068-0.156-0.201-0.156-0.396v-0.444c0-0.188,0.052-0.319,0.156-0.392
			c0.104-0.072,0.24-0.108,0.41-0.108s0.307,0.036,0.41,0.108c0.104,0.072,0.156,0.203,0.156,0.392v0.444
			c0,0.195-0.054,0.328-0.16,0.396C160.498,101.59,160.362,101.625,160.199,101.625z"/>
	</g>
	<g>
		
			<rect x="2.126" y="27.439" transform="matrix(0.9955 -0.0949 0.0949 0.9955 -3.1512 9.6384)" fill="#020202" width="195.265" height="21.021"/>
		
			<rect x="14.274" y="35.233" transform="matrix(0.9955 -0.0949 0.0949 0.9955 -4.2455 1.9134)" fill="#BDC3C7" width="7.459" height="20.762"/>
		
			<rect x="34.483" y="33.306" transform="matrix(0.9955 -0.0949 0.0949 0.9955 -3.9716 3.8216)" fill="#BDC3C7" width="7.459" height="20.762"/>
		
			<rect x="54.771" y="31.372" transform="matrix(0.9955 -0.0949 0.0949 0.9955 -3.6988 5.741)" fill="#BDC3C7" width="7.459" height="20.762"/>
		
			<rect x="74.981" y="29.445" transform="matrix(0.9955 -0.0949 0.0949 0.9955 -3.4251 7.6515)" fill="#BDC3C7" width="7.458" height="20.762"/>
		
			<rect x="94.711" y="27.564" transform="matrix(0.9955 -0.0949 0.0949 0.9955 -3.1571 9.5147)" fill="#BDC3C7" width="7.459" height="20.762"/>
		
			<rect x="114.921" y="25.638" transform="matrix(0.9955 -0.0949 0.0949 0.9955 -2.883 11.4242)" fill="#BDC3C7" width="7.459" height="20.762"/>
		
			<rect x="135.209" y="23.704" transform="matrix(0.9955 -0.0949 0.0949 0.9955 -2.6079 13.3411)" fill="#BDC3C7" width="7.459" height="20.762"/>
		
			<rect x="155.419" y="21.777" transform="matrix(0.9955 -0.0949 0.0949 0.9955 -2.3342 15.2545)" fill="#BDC3C7" width="7.458" height="20.762"/>
		
			<rect x="175.986" y="19.816" transform="matrix(0.9955 -0.0949 0.0949 0.9955 -2.055 17.1961)" fill="#BDC3C7" width="7.458" height="20.762"/>
	</g>
</g>
</svg>
