<svg xmlns="http://www.w3.org/2000/svg" viewBox="0 0 200 200"><path fill="#020202" d="M3.165 56.608H198.43v125.17H3.166z"/><path fill="none" stroke="#BDC3C7" stroke-width="4" stroke-miterlimit="10" d="M3.165 84.534H198.43M3.165 114.354H198.43M43.553 84.534v29.82m67.092-29.82v29.82M3.165 173.1H198.43"/><path d="M29.558 140.768c.986.986 1.48 2.18 1.48 3.578 0 1.396-.495 2.59-1.48 3.576-.824.822-1.83 1.316-3.023 1.48H21.48v-15.126h4.65c.922 0 1.705.322 2.347.97.642.645.963 1.42.963 2.33s-.323 1.685-.97 2.33c.258.092.62.38 1.088.862zm-6.58-5.014v3.535H26.3c.497-.06.866-.2 1.107-.44.348-.35.52-.78.52-1.28s-.176-.93-.53-1.28c-.356-.36-.782-.54-1.278-.54h-3.14zM25.98 147.9c.974 0 1.806-.346 2.498-1.04.692-.69 1.038-1.528 1.038-2.515 0-.98-.346-1.818-1.038-2.514s-1.524-1.04-2.496-1.04h-3v7.11h3zm11.678-8.845c1.47 0 2.718.516 3.747 1.55s1.543 2.282 1.543 3.75c0 1.462-.515 2.712-1.543 3.747-1.03 1.037-2.278 1.555-3.747 1.555-1.462 0-2.71-.518-3.747-1.555-1.03-1.035-1.55-2.285-1.55-3.746 0-1.47.52-2.72 1.56-3.752s2.29-1.55 3.75-1.55zm-2.656 2.64c-.734.736-1.102 1.625-1.102 2.66 0 1.037.365 1.92 1.096 2.65s1.618 1.096 2.66 1.096c1.037 0 1.922-.36 2.657-1.09s1.102-1.61 1.102-2.65c0-1.03-.367-1.92-1.102-2.66-.734-.74-1.62-1.1-2.656-1.1s-1.92.37-2.655 1.11zm11.385-7.42V149.4h-1.5v-15.125h1.5zm3.32 5.58v-3.78h1.49v3.78h1.81v1.5h-1.81v8.046h-1.49v-8.04h-1.81v-1.5h1.81zm11.55 2.733v6.813h-1.5v-15.12h1.5v6.82h6.717v-6.81h1.5v15.12h-1.5v-6.81h-6.717zm14.71-6.822V149.4h-1.49v-13.635h-3.66v-1.49h8.802v1.49h-3.66zm18.5-1.49V149.4h-1.5v-12.9l-4.472 5.844-.777 1.033-.788-1.023-4.47-5.854v12.9h-1.5v-15.125h1.69l5.068 6.62 5.056-6.62h1.693zM96.65 149.4v-15.125h1.5V147.9h5.502v1.5H96.65zm10.953-10.836l.383-.063c.405-.07.8-.11 1.182-.11.71 0 1.384.12 2.022.34 1.44.49 2.516 1.4 3.226 2.73.44.83.66 1.68.66 2.55 0 .55-.082 1.09-.245 1.63-.44 1.44-1.33 2.52-2.66 3.24-.81.44-1.65.65-2.51.65-.54 0-1.1-.09-1.66-.26-1.15-.35-2.12-1.05-2.88-2.1l1.07-1.16c.63.93 1.39 1.53 2.28 1.8.41.13.8.198 1.17.198.62 0 1.23-.156 1.82-.47.96-.51 1.6-1.29 1.92-2.33.13-.4.2-.792.2-1.183 0-.62-.16-1.22-.48-1.81-.51-.96-1.29-1.62-2.34-1.99-.45-.16-.95-.236-1.49-.236-.74 0-1.62.154-2.64.48l-.96-.847 1.72-4.735v-.57h5.19v1.49h-3.93l-1.02 2.8zM126.91 149.4l-5.513-15.115h1.586l4.65 12.764 4.728-12.78h1.59l-5.57 15.12h-1.47zm9.86-12.35c.226.222.34.49.34.802 0 .326-.114.602-.34.824-.23.225-.498.336-.81.336-.32 0-.594-.11-.82-.336-.228-.223-.34-.498-.34-.824 0-.313.112-.58.34-.803.227-.23.5-.34.82-.34.31 0 .58.11.81.33zm-.077 2.804v9.547h-1.49v-9.54h1.49zm12.53 9.546h-1.5v-1.117c-.988.916-2.216 1.373-3.685 1.373-1.462 0-2.71-.518-3.747-1.555-1.03-1.03-1.55-2.28-1.55-3.74 0-1.47.52-2.72 1.56-3.75s2.29-1.55 3.75-1.55c1.47 0 2.7.46 3.69 1.37v-6.14h1.5v15.12zm-1.5-4.28v-1.53c-.137-.71-.478-1.342-1.023-1.895-.738-.738-1.625-1.107-2.66-1.107s-1.923.37-2.657 1.107c-.734.736-1.102 1.625-1.102 2.66 0 1.037.37 1.92 1.1 2.65.73.73 1.62 1.096 2.66 1.096s1.93-.36 2.66-1.1c.55-.54.89-1.17 1.02-1.87zm4.52-.882c.016 1.113.388 2.037 1.12 2.768.73.73 1.617 1.096 2.66 1.096 1.036 0 1.923-.37 2.66-1.105.13-.13.3-.324.51-.586l1.49.53c-.26.44-.565.83-.913 1.16-1.03 1.05-2.278 1.57-3.747 1.57-1.462 0-2.71-.52-3.747-1.55-1.036-1.03-1.554-2.28-1.554-3.74 0-1.47.518-2.72 1.554-3.75s2.285-1.55 3.747-1.55c1.47 0 2.722.52 3.758 1.56.92.92 1.38 2.13 1.38 3.63h-8.91zm.33-1.51h6.856c-.09-.27-.34-.614-.75-1.032-.74-.738-1.63-1.107-2.66-1.107-1.05 0-1.93.36-2.66 1.1-.44.44-.7.79-.79 1.03zm15.03-3.673c1.47 0 2.72.516 3.748 1.55 1.03 1.032 1.55 2.282 1.55 3.75 0 1.462-.51 2.712-1.54 3.747-1.03 1.037-2.27 1.555-3.74 1.555-1.46 0-2.71-.518-3.74-1.555-1.03-1.035-1.55-2.285-1.55-3.746 0-1.47.52-2.72 1.56-3.752s2.28-1.55 3.75-1.55zm-2.655 2.64c-.734.736-1.102 1.625-1.102 2.66 0 1.037.365 1.92 1.097 2.65.73.73 1.618 1.096 2.66 1.096 1.037 0 1.922-.36 2.656-1.09.73-.73 1.1-1.61 1.1-2.65 0-1.03-.37-1.92-1.11-2.66-.74-.74-1.62-1.1-2.66-1.1s-1.92.37-2.66 1.11zm12.215 2.895c-.71-.383-1.21-.72-1.5-1.012-.483-.482-.725-1.064-.725-1.746 0-.674.24-1.254.724-1.74s1.064-.73 1.746-.73c.68 0 1.25.228 1.703.683.44.44.66.947.66 1.52v.278l-1.32.53c-.09-.673-.22-1.095-.38-1.265s-.38-.256-.65-.256-.5.098-.69.293-.28.424-.28.686c0 .27.1.5.29.7.14.14.43.36.89.64.8.43 1.37.82 1.72 1.17.58.58.86 1.28.86 2.09 0 .83-.28 1.54-.86 2.12-.57.58-1.27.87-2.09.87s-1.524-.29-2.103-.87c-.58-.58-.87-1.31-.87-2.19l1.49-.38c0 .73.14 1.23.433 1.52s.64.44 1.04.44.753-.14 1.05-.44c.29-.29.44-.64.44-1.06 0-.39-.15-.74-.45-1.03-.17-.17-.535-.43-1.096-.8zM8.63 79.305v-5.202h.563v2.136h2.217V74.1h.564v5.202h-.564V76.85H9.193v2.452H8.63zm4.03-1.885c0-.65.137-1.14.41-1.47.273-.332.62-.498 1.038-.498.412 0 .756.166 1.032.497.277.33.416.8.416 1.43 0 .67-.136 1.18-.408 1.51s-.62.5-1.04.5c-.414 0-.76-.17-1.034-.5-.277-.33-.414-.83-.414-1.47zm.535 0c0 .487.09.85.266 1.088.18.238.4.357.66.357.25 0 .46-.12.64-.36s.27-.603.27-1.086c0-.49-.09-.85-.26-1.09-.17-.24-.39-.36-.66-.36-.25 0-.46.12-.63.36s-.26.6-.26 1.08zm5 1.885v-.554c-.12.22-.263.38-.426.48s-.35.16-.56.16c-.25 0-.45-.06-.63-.19s-.29-.29-.35-.5-.09-.47-.09-.82v-2.34h.52v2.09c0 .39.02.65.06.78s.11.24.21.32c.1.08.22.12.36.12.25 0 .45-.1.61-.31.14-.17.21-.5.21-.97v-2.02h.52v3.77h-.468zm1.29 0v-3.768h.473v.57c.12-.264.23-.44.332-.526s.213-.12.34-.12c.174 0 .353.07.535.21l-.177.59c-.13-.09-.257-.13-.38-.13-.11 0-.213.04-.305.12s-.157.19-.195.33c-.066.25-.1.51-.1.78v1.97h-.522zm26.848 0v-5.2h.85l1.01 3.682.204.77c.05-.192.125-.47.227-.834l1.023-3.62h.76v5.203h-.543v-4.35l-1.244 4.35h-.507l-1.237-4.425v4.43h-.543zm4.907-4.467v-.734h.522v.734h-.52zm0 4.468v-3.768h.522v3.768h-.52zm1.324 0v-3.768h.472v.532c.113-.207.252-.362.416-.464.164-.103.353-.153.565-.153.165 0 .318.032.458.097s.254.15.34.256c.086.105.15.242.193.41s.064.426.064.773v2.31h-.522v-2.29c0-.28-.023-.48-.07-.61s-.122-.23-.223-.3-.217-.11-.35-.11c-.25 0-.45.09-.6.28-.15.19-.224.51-.224.96v2.06h-.52zm5.336 0v-.554c-.12.213-.263.373-.426.48s-.348.16-.554.16c-.244 0-.452-.066-.624-.198-.173-.13-.288-.297-.346-.5s-.087-.475-.087-.822v-2.334h.52v2.09c0 .388.02.647.06.78s.11.235.216.315c.1.08.22.12.36.12.25 0 .45-.104.61-.31.13-.177.2-.502.2-.976v-2.02h.52v3.77h-.46zm2.455-.572l.07.564c-.144.038-.273.057-.39.057-.182 0-.33-.036-.44-.108-.11-.072-.188-.17-.23-.296-.04-.12-.06-.37-.06-.74v-2.17h-.384v-.49h.39v-.93l.52-.38v1.32h.53v.5h-.53v2.2c0 .21.02.34.05.4.05.09.13.13.26.13.06 0 .14-.01.23-.02zm2.605-.642l.54.082c-.09.402-.253.706-.49.91s-.526.307-.874.307c-.438 0-.792-.16-1.063-.49-.27-.33-.406-.81-.406-1.44 0-.65.137-1.14.41-1.49.273-.34.62-.51 1.038-.51.4 0 .733.17 1 .51.268.34.4.82.4 1.46l-.003.17h-2.306c.02.43.12.75.294.96.175.22.388.33.64.33.393 0 .667-.25.82-.77zm-1.72-1.032h1.724c-.024-.326-.093-.57-.21-.73-.167-.235-.38-.352-.64-.352-.235 0-.435.098-.6.292-.167.195-.258.46-.275.79zm2.72 1.117l.522-.1c.03.267.114.465.25.594.138.13.32.2.546.2s.402-.05.526-.17c.124-.11.186-.25.186-.43 0-.15-.053-.26-.16-.35-.073-.05-.25-.12-.532-.21-.407-.12-.68-.23-.816-.32s-.244-.2-.32-.35c-.075-.14-.112-.31-.112-.5 0-.32.103-.58.31-.78.205-.2.49-.3.854-.3.23 0 .43.04.605.13.17.09.3.2.39.34s.15.34.19.6l-.51.09c-.05-.41-.28-.62-.67-.62-.23 0-.4.05-.51.14-.11.09-.17.21-.17.35 0 .14.05.25.16.33.06.05.25.13.57.23.43.14.71.25.84.33.12.08.22.19.29.33.07.15.1.31.1.51 0 .36-.12.65-.35.88-.23.223-.54.334-.938.334-.74 0-1.17-.407-1.29-1.216zm57.635-.547l.532-.056c.028.286.093.51.193.67s.244.287.432.384c.187.097.397.146.63.146.337 0 .598-.082.783-.246.187-.164.28-.377.28-.64 0-.152-.035-.286-.103-.4-.067-.115-.17-.21-.305-.282-.137-.073-.43-.177-.882-.31-.402-.12-.688-.24-.858-.36-.17-.122-.304-.275-.397-.46-.095-.186-.143-.396-.143-.63 0-.42.137-.765.408-1.033.272-.267.64-.4 1.1-.4.317 0 .595.062.832.187.238.125.423.305.554.54.14.234.21.51.22.827l-.54.05c-.03-.338-.13-.59-.3-.752-.17-.163-.42-.245-.73-.245-.32 0-.56.07-.73.214-.17.144-.25.33-.25.555 0 .21.07.37.19.49.13.11.4.23.83.35.42.11.72.22.89.3.26.13.46.31.59.52.13.21.2.47.2.77 0 .29-.06.57-.2.81-.14.24-.33.43-.57.56-.24.12-.53.19-.87.19-.53 0-.95-.16-1.26-.48s-.48-.75-.49-1.29zm6.202.462l.54.082c-.09.402-.253.706-.488.91-.24.205-.53.307-.88.307-.44 0-.79-.16-1.07-.49-.27-.33-.41-.81-.41-1.44 0-.65.13-1.14.41-1.49.27-.34.62-.51 1.03-.51.4 0 .73.17 1 .51.27.34.4.82.4 1.46v.17h-2.31c.02.43.12.75.29.96.17.22.39.33.64.33.39 0 .66-.25.82-.77zm-1.72-1.032h1.723c-.023-.326-.093-.57-.21-.73-.167-.235-.38-.352-.642-.352-.233 0-.434.098-.6.292-.164.195-.255.46-.272.79zm4.945.865l.515.082c-.06.45-.208.792-.445 1.03-.238.235-.523.353-.857.353-.404 0-.737-.166-.998-.5-.262-.33-.393-.823-.393-1.473 0-.655.132-1.146.396-1.474s.603-.49 1.017-.49c.32 0 .59.098.808.297s.358.497.42.894l-.507.092c-.05-.254-.137-.444-.26-.57-.122-.126-.27-.19-.443-.19-.258 0-.47.115-.64.343-.17.22-.254.59-.254 1.08 0 .51.09.88.25 1.11s.37.34.62.34c.2 0 .37-.08.51-.23.14-.15.23-.39.27-.71zm.76-.505c0-.65.136-1.14.41-1.47s.618-.498 1.037-.498c.41 0 .75.166 1.03.497.27.33.41.8.41 1.43 0 .67-.14 1.18-.41 1.51-.27.33-.62.5-1.04.5-.42 0-.76-.17-1.04-.5-.28-.33-.42-.82-.42-1.47zm.535 0c0 .488.09.85.267 1.09.177.237.397.356.66.356.245 0 .457-.12.633-.36s.265-.603.265-1.086c0-.485-.09-.847-.267-1.085-.177-.238-.397-.357-.66-.357-.248 0-.46.12-.635.36s-.263.6-.263 1.082zm2.977 1.886v-3.768h.472v.532c.113-.207.252-.362.416-.464.164-.103.353-.153.565-.153.165 0 .318.032.46.097.14.065.253.15.34.256.085.105.15.242.19.41.044.168.065.426.065.773v2.31h-.52v-2.29c0-.28-.025-.48-.072-.61s-.12-.23-.222-.3-.217-.11-.35-.11c-.25 0-.45.09-.6.28-.15.19-.224.51-.224.96v2.06h-.52zm5.316 0v-.476c-.096.182-.217.32-.366.417s-.31.144-.482.144c-.364 0-.68-.17-.945-.51-.267-.34-.4-.83-.4-1.45 0-.43.06-.79.178-1.09.118-.29.275-.52.473-.66.197-.14.417-.21.657-.21.173 0 .333.05.48.14.147.09.27.22.366.38v-1.87h.53v5.2h-.49zm-1.658-1.88c0 .486.085.848.254 1.084.17.237.366.355.592.355.223 0 .415-.114.578-.34.164-.228.245-.57.245-1.03 0-.527-.08-.913-.24-1.155-.16-.243-.37-.364-.61-.364-.22 0-.41.117-.57.35s-.23.6-.23 1.1zm2.768.75l.52-.1c.03.268.115.466.252.595.138.13.32.2.546.2s.4-.05.525-.17.186-.25.186-.43c0-.15-.06-.26-.16-.35-.08-.05-.25-.12-.54-.21-.41-.12-.68-.23-.82-.32s-.25-.2-.32-.35c-.08-.14-.11-.31-.11-.5 0-.32.1-.58.31-.78s.49-.3.85-.3c.23 0 .43.04.6.13.17.09.3.2.4.34.09.14.15.34.19.6l-.51.09c-.05-.41-.27-.62-.67-.62-.23 0-.4.05-.51.14-.11.09-.17.21-.17.35 0 .14.05.25.16.33.06.05.25.13.57.23.43.14.71.25.84.33.13.08.23.19.3.33.07.15.1.31.1.51 0 .36-.12.65-.34.88s-.54.334-.94.334c-.74 0-1.17-.407-1.29-1.216zM16.123 104.768c-.705 0-1.24-.27-1.61-.81s-.55-1.33-.55-2.36v-1.36c0-1.044.183-1.84.55-2.388.37-.547.908-.82 1.62-.82.698 0 1.23.273 1.6.82.367.548.55 1.344.55 2.388v1.36c0 1.03-.183 1.818-.55 2.36-.37.54-.905.81-1.61.81zm0-.803c.465 0 .797-.178.996-.537s.29-.963.29-1.813v-1.396c0-.87-.1-1.48-.3-1.85-.2-.37-.53-.55-1-.55s-.8.18-1 .54c-.2.36-.3.98-.3 1.84v1.39c0 .85.1 1.45.29 1.81s.53.54 1 .54zm0-2.34c-.17 0-.307-.035-.41-.104-.105-.06-.157-.2-.157-.39v-.44c0-.18.052-.32.156-.39.104-.07.24-.11.41-.11s.308.04.412.11c.104.07.156.2.156.39v.45c0 .2-.054.33-.16.4s-.243.11-.407.11zm5.89 3.143c-.706 0-1.24-.27-1.61-.81s-.55-1.33-.55-2.36v-1.36c0-1.044.182-1.84.55-2.388.37-.547.907-.82 1.62-.82.697 0 1.23.273 1.6.82.366.548.55 1.344.55 2.388v1.36c0 1.03-.184 1.818-.55 2.36-.37.54-.907.81-1.61.81zm0-.803c.464 0 .796-.178.995-.537s.297-.963.297-1.813v-1.396c0-.87-.1-1.48-.297-1.85-.198-.37-.53-.55-.996-.55-.466 0-.797.18-.996.54-.198.36-.297.98-.297 1.84v1.39c0 .85.09 1.45.29 1.81s.53.54.99.54zm0-2.34c-.17 0-.308-.035-.41-.104-.106-.06-.158-.2-.158-.39v-.44c0-.18.052-.32.156-.39.11-.07.25-.11.42-.11s.31.04.41.11c.11.07.16.2.16.39v.45c0 .2-.05.33-.16.4s-.24.11-.4.11z" fill="#BDC3C7"/><path d="M16.123 104.768c-.705 0-1.24-.27-1.61-.81s-.55-1.33-.55-2.36v-1.36c0-1.044.183-1.84.55-2.388.37-.547.908-.82 1.62-.82.698 0 1.23.273 1.6.82.367.548.55 1.344.55 2.388v1.36c0 1.03-.183 1.818-.55 2.36-.37.54-.905.81-1.61.81zm0-.803c.465 0 .797-.178.996-.537s.29-.963.29-1.813v-1.396c0-.87-.1-1.48-.3-1.85-.2-.37-.53-.55-1-.55s-.8.18-1 .54c-.2.36-.3.98-.3 1.84v1.39c0 .85.1 1.45.29 1.81s.53.54 1 .54zm0-2.34c-.17 0-.307-.035-.41-.104-.105-.06-.157-.2-.157-.39v-.44c0-.18.052-.32.156-.39.104-.07.24-.11.41-.11s.308.04.412.11c.104.07.156.2.156.39v.45c0 .2-.054.33-.16.4s-.243.11-.407.11zm5.89 3.143c-.706 0-1.24-.27-1.61-.81s-.55-1.33-.55-2.36v-1.36c0-1.044.182-1.84.55-2.388.37-.547.907-.82 1.62-.82.697 0 1.23.273 1.6.82.366.548.55 1.344.55 2.388v1.36c0 1.03-.184 1.818-.55 2.36-.37.54-.907.81-1.61.81zm0-.803c.464 0 .796-.178.995-.537s.297-.963.297-1.813v-1.396c0-.87-.1-1.48-.297-1.85-.198-.37-.53-.55-.996-.55-.466 0-.797.18-.996.54-.198.36-.297.98-.297 1.84v1.39c0 .85.09 1.45.29 1.81s.53.54.99.54zm0-2.34c-.17 0-.308-.035-.41-.104-.106-.06-.158-.2-.158-.39v-.44c0-.18.052-.32.156-.39.11-.07.25-.11.42-.11s.31.04.41.11c.11.07.16.2.16.39v.45c0 .2-.05.33-.16.4s-.24.11-.4.11zm47.85 3.143c-.705 0-1.24-.27-1.61-.81s-.55-1.33-.55-2.36v-1.36c0-1.044.183-1.84.55-2.388.37-.547.908-.82 1.62-.82.698 0 1.23.273 1.6.82.367.548.55 1.344.55 2.388v1.36c0 1.03-.183 1.818-.55 2.36-.37.54-.906.81-1.61.81zm0-.803c.465 0 .797-.178.996-.537s.29-.963.29-1.813v-1.396c0-.87-.1-1.48-.3-1.85-.2-.37-.53-.55-1-.55s-.8.18-1 .54c-.2.36-.3.98-.3 1.84v1.39c0 .85.1 1.45.29 1.81s.53.54 1 .54zm0-2.34c-.17 0-.307-.035-.41-.104-.105-.06-.157-.2-.157-.39v-.44c0-.18.052-.32.156-.39.104-.07.24-.11.41-.11s.308.04.412.11c.104.07.156.2.156.39v.45c0 .2-.054.33-.16.4s-.244.11-.407.11zm5.887 3.143c-.704 0-1.24-.27-1.608-.81s-.552-1.33-.552-2.36v-1.36c0-1.044.184-1.84.552-2.388.368-.547.907-.82 1.618-.82.7 0 1.232.273 1.6.82.368.548.552 1.344.552 2.388v1.36c0 1.03-.184 1.818-.552 2.36-.367.54-.904.81-1.61.81zm0-.803c.466 0 .798-.178.997-.537s.297-.963.297-1.813v-1.396c0-.87-.1-1.48-.297-1.85-.198-.37-.53-.55-.996-.55-.46 0-.79.18-.99.54-.2.36-.29.98-.29 1.84v1.39c0 .85.1 1.45.3 1.81s.53.54 1 .54zm0-2.34c-.17 0-.306-.035-.41-.104-.104-.06-.156-.2-.156-.39v-.44c0-.18.052-.32.156-.39.104-.07.24-.11.41-.11s.308.04.412.11c.104.07.156.2.156.39v.45c0 .2-.054.33-.16.4s-.243.11-.407.11zm63.875 3.143c-.705 0-1.24-.27-1.61-.81-.366-.542-.55-1.33-.55-2.36v-1.36c0-1.044.184-1.84.55-2.388.37-.547.91-.82 1.62-.82.698 0 1.23.273 1.6.82.368.548.552 1.344.552 2.388v1.36c0 1.03-.184 1.818-.552 2.36s-.906.81-1.61.81zm0-.803c.466 0 .798-.178.996-.537.2-.36.3-.963.3-1.813v-1.396c0-.87-.1-1.48-.29-1.85-.19-.37-.53-.55-.99-.55s-.8.18-.99.54c-.2.36-.3.98-.3 1.84v1.39c0 .85.1 1.45.3 1.81.2.36.53.54 1 .54zm0-2.34c-.17 0-.307-.035-.41-.104-.104-.06-.156-.2-.156-.39v-.44c0-.18.05-.32.15-.39.1-.07.24-.11.41-.11s.3.04.41.11c.1.07.15.2.15.39v.45c0 .2-.06.33-.16.4-.11.07-.25.11-.41.11zm5.89 3.143c-.706 0-1.24-.27-1.61-.81-.367-.542-.55-1.33-.55-2.36v-1.36c0-1.044.183-1.84.55-2.388.37-.547.91-.82 1.62-.82.697 0 1.23.273 1.6.82.367.548.55 1.344.55 2.388v1.36c0 1.03-.183 1.818-.55 2.36s-.907.81-1.61.81zm0-.803c.465 0 .797-.178.995-.537.197-.36.297-.963.297-1.813v-1.396c0-.87-.1-1.48-.297-1.85-.198-.37-.53-.55-.996-.55s-.798.18-.995.54c-.2.36-.3.98-.3 1.84v1.39c0 .85.1 1.45.3 1.81.19.36.52.54.99.54zm0-2.34c-.17 0-.308-.035-.41-.104-.105-.06-.157-.2-.157-.39v-.44c0-.18.052-.32.156-.39.104-.07.24-.11.41-.11s.307.04.41.11c.104.07.156.2.156.39v.45c0 .2-.054.33-.16.4-.107.07-.243.11-.406.11zm8.795 3.143c-.704 0-1.24-.27-1.608-.81-.367-.542-.552-1.33-.552-2.36v-1.36c0-1.044.185-1.84.552-2.388.368-.547.908-.82 1.62-.82.697 0 1.23.273 1.6.82.367.548.55 1.344.55 2.388v1.36c0 1.03-.183 1.818-.55 2.36s-.907.81-1.61.81zm0-.803c.467 0 .8-.178.997-.537.197-.36.297-.963.297-1.813v-1.396c0-.87-.1-1.48-.297-1.85-.198-.37-.53-.55-.996-.55s-.79.18-.99.54c-.2.36-.3.98-.3 1.84v1.39c0 .85.1 1.45.3 1.81.2.36.53.54 1 .54zm0-2.34c-.17 0-.306-.035-.41-.104-.103-.06-.155-.2-.155-.39v-.44c0-.18.052-.32.156-.39.11-.07.24-.11.41-.11s.31.04.41.11c.11.07.16.2.16.39v.45c0 .2-.05.33-.16.4s-.24.11-.4.11zm5.89 3.143c-.706 0-1.242-.27-1.61-.81-.367-.542-.552-1.33-.552-2.36v-1.36c0-1.044.185-1.84.552-2.388.368-.547.908-.82 1.62-.82.697 0 1.23.273 1.6.82.367.548.55 1.344.55 2.388v1.36c0 1.03-.183 1.818-.55 2.36s-.907.81-1.61.81zm0-.803c.465 0 .797-.178.995-.537.197-.36.297-.963.297-1.813v-1.396c0-.87-.1-1.48-.297-1.85-.198-.37-.53-.55-.996-.55s-.8.18-1 .54c-.2.36-.3.98-.3 1.84v1.39c0 .85.1 1.45.3 1.81.19.36.53.54.99.54zm0-2.34c-.17 0-.308-.035-.41-.104-.105-.06-.157-.2-.157-.39v-.44c0-.18.052-.32.156-.39.1-.07.24-.11.41-.11s.3.04.41.11c.1.07.15.2.15.39v.45c0 .2-.06.33-.16.4-.11.07-.25.11-.41.11z" fill="#BDC3C7"/><path fill="#020202" d="M1.57 36.752l194.386-18.53 1.994 20.926L3.564 57.678z"/><path fill="#BDC3C7" d="M13.308 35.633l7.425-.708 1.97 20.67-7.425.707zm20.21-1.928l7.424-.708 1.97 20.67-7.425.707zm20.285-1.93l7.425-.71 1.97 20.67-7.425.708zm20.21-1.927l7.424-.707 1.97 20.67-7.424.71zm19.73-1.88l7.426-.71 1.97 20.668-7.43.708zm20.21-1.928l7.426-.707 1.97 20.67-7.43.706zm20.29-1.933l7.425-.708 1.97 20.66-7.426.71zm20.21-1.923l7.423-.708 1.97 20.67-7.424.707zm20.567-1.962l7.424-.708 1.97 20.67-7.424.706z"/></svg>